{"title":"Toy Story 3 2010 544p TC H264 WRATH","uid":5730849,"size":1698406837,"categoryP":"other","categoryS":"other","magnet":"?xt=urn:btih:b00e6d2b16f6f5d69a3a1d155f37ccdd071e84a5&amp;dn=Toy+Story+3+2010+544p+TC+H264+WRATH&amp;tr=udp%3A%2F%2Ftracker.openbittorrent.com%3A80&amp;tr=udp%3A%2F%2Fopen.demonii.com%3A1337&amp;tr=udp%3A%2F%2Ftracker.coppersurfer.tk%3A6969&amp;tr=udp%3A%2F%2Fexodus.desync.com%3A6969","seeders":0,"leechers":1,"uploader":"hiest","files":2,"time":1280639212,"description":"File Name\n\nToy Story 3 2010 544p TC H264.mp4\n\nFile Size\nFormat : MPEG-4\nFormat profile : Base Media\nCodec ID : isom\nFile size : 1.58 GiB\nDuration : 1h 41mn\nOverall bit rate : 2 221 Kbps\n\nVideo\nID : 1\nFormat : AVC\nFormat/Info : Advanced Video Codec\nFormat profile : &lt;a class=&quot;__cf_email__&quot; href=&quot;/cdn-cgi/l/email-protection&quot; data-cfemail=&quot;521a3b353a121e667c63&quot;&gt;[email&amp;#160;protected]&lt;/a&gt;&lt;script cf-hash='f9e31' type=&quot;text/javascript&quot;&gt;\n/* &lt;![CDATA[ */!function(){try{var t=&quot;currentScript&quot;in document?document.currentScript:function(){for(var t=document.getElementsByTagName(&quot;script&quot;),e=t.length;e--;)if(t[e].getAttribute(&quot;cf-hash&quot;))return t[e]}();if(t&amp;&amp;t.previousSibling){var e,r,n,i,c=t.previousSibling,a=c.getAttribute(&quot;data-cfemail&quot;);if(a){for(e=&quot;&quot;,r=parseInt(a.substr(0,2),16),n=2;a.length-n;n+=2)i=parseInt(a.substr(n,2),16)^r,e+=String.fromCharCode(i);e=document.createTextNode(e),c.parentNode.replaceChild(e,c)}}}catch(u){}}();/* ]]&gt; */&lt;/script&gt;\nFormat settings, CABAC : Yes\nFormat settings, ReFrames : 3 frames\nCodec ID : avc1\nCodec ID/Info : Advanced Video Coding\nDuration : 1h 41mn\nBit rate mode : Variable\nBit rate : 2 099 Kbps\nMaximum bit rate : 8 672 Kbps\nWidth : 1 280 pixels\nHeight : 544 pixels\nDisplay aspect ratio : 2.35:1\nFrame rate mode : Constant\nFrame rate : 23.976 fps\nResolution : 24 bits\nColorimetry : 4:2:0\nScan type : Progressive\nBits/(Pixel*Frame) : 0.126\nStream size : 1.49 GiB (95%)\n\nAudio \nID : 2\nFormat : AAC\nFormat/Info : Advanced Audio Codec\nFormat version : Version 4\nFormat profile : LC\nFormat settings, SBR : No\nCodec ID : 40\nDuration : 1h 34mn\nBit rate mode : Variable\nBit rate : 128 Kbps\nMaximum bit rate : 140 Kbps\nChannel(s) : 2 channels\nChannel positions : L R\nSampling rate : 48.0 KHz\nResolution : 16 bits\nStream size : 86.2 MiB (5%)\n\nText\nID : 3\nFormat : Timed text\nCodec ID : tx3g\nDuration : 1h 16mn\nBit rate mode : Variable\nBit rate : 1 bps\nStream size : 448 Bytes (0%)\n\nEnglish SRT : external\n\nLanguage : English\n\n\n &lt;a href=&quot;\nhttp://www.imdb.com/title/tt435761/&quot; rel=&quot;nofollow&quot; target=&quot;_NEW&quot;&gt;\nhttp://www.imdb.com/title/tt435761/&lt;/a&gt;\n\nRelease Date: 18 June 2010 (USA) \n\nGenre: Animation | Adventure | Comedy | Family | Fantasy \n\nPlot: The toys are mistakenly delivered to a day-care center instead of the attic right before Andy leaves for college, and it's up to Woody to convince the other toys that they weren't abandoned and to return home.\n\nCast: \nTom Hanks ... Woody (voice)\nTim Allen ... Buzz Lightyear (voice)\nJoan Cusack ... Jessie (voice)\nNed Beatty ... Lotso (voice)\nDon Rickles ... Mr. Potato Head (voice)\nMichael Keaton ... Ken (voice)\nWallace Shawn ... Rex (voice)\nJohn Ratzenberger ... Hamm (voice)\nEstelle Harris ... Mrs. Potato Head (voice)\nJohn Morris ... Andy (voice)\nJodi Benson ... Barbie (voice)\nEmily Hahn ... Bonnie (voice)\nLaurie Metcalf ... Andy's Mom (voice)\nBlake Clark ... Slinky Dog (voice)\nTeddy Newton ... Chatter Telephone (voice)\n\n\n\n\n\n\n\nVideo Source: Chinese Telecine,there is some noticable ghosting during scenes of movement.\nAudio: Prism (thanks)\nSubtitles: English for foreign speaking scenes\n\nNotes: Fixed the audio synchronization,my bad on prior upload.\n\n\n\n\n\n\n\n\n\n\nScreenshots:\n\nhttp*://lookpic*.*com/d2/i2/594/uTuptno.jpeg\n\nhttp*://lookpic*.*com/d2/i2/1683/ym4FZ0nn.png\n\nhttp*://lookpic*.*com/d2/i2/583/zIe5l7Z7.png\n\nhttp*://lookpic*.*com/d2/i2/1924/ZfSczkRt.png\n\nhttp*://lookpic*.*com/d2/i2/827/TMgIVbwo.png","torrent":{"xt":"urn:btih:b00e6d2b16f6f5d69a3a1d155f37ccdd071e84a5","amp;dn":"Toy+Story+3+2010+544p+TC+H264+WRATH","amp;tr":["udp%3A%2F%2Ftracker.openbittorrent.com%3A80","udp%3A%2F%2Fopen.demonii.com%3A1337","udp%3A%2F%2Ftracker.coppersurfer.tk%3A6969","udp%3A%2F%2Fexodus.desync.com%3A6969"],"infoHash":"b00e6d2b16f6f5d69a3a1d155f37ccdd071e84a5","infoHashBuffer":{"type":"Buffer","data":[176,14,109,43,22,246,245,214,154,58,29,21,95,55,204,221,7,30,132,165]},"announce":[],"urlList":[]}}